<svg width="65" height="65" viewBox="0 0 65 65" fill="none" xmlns="http://www.w3.org/2000/svg">
<g clip-path="url(#clip0)">
<path d="M32.5 5.85813C41.1775 5.85813 42.2067 5.89062 45.6354 6.04771C54.4429 6.44854 58.5569 10.6275 58.9577 19.37C59.1148 22.796 59.1446 23.8252 59.1446 32.5027C59.1446 41.1829 59.1121 42.2094 58.9577 45.6354C58.5542 54.3698 54.451 58.5569 45.6354 58.9577C42.2067 59.1148 41.1829 59.1473 32.5 59.1473C23.8225 59.1473 22.7933 59.1148 19.3673 58.9577C10.5381 58.5542 6.44583 54.3563 6.045 45.6327C5.88792 42.2067 5.85542 41.1802 5.85542 32.5C5.85542 23.8225 5.89063 22.796 6.045 19.3673C6.44854 10.6275 10.5517 6.44583 19.3673 6.045C22.796 5.89063 23.8225 5.85813 32.5 5.85813V5.85813ZM32.5 0C23.6735 0 22.5685 0.0379167 19.1019 0.195C7.29896 0.736667 0.739375 7.28542 0.197708 19.0992C0.0379167 22.5685 0 23.6735 0 32.5C0 41.3265 0.0379167 42.4342 0.195 45.9008C0.736667 57.7037 7.28542 64.2633 19.0992 64.805C22.5685 64.9621 23.6735 65 32.5 65C41.3265 65 42.4342 64.9621 45.9008 64.805C57.6929 64.2633 64.2687 57.7146 64.8023 45.9008C64.9621 42.4342 65 41.3265 65 32.5C65 23.6735 64.9621 22.5685 64.805 19.1019C64.2742 7.30979 57.7173 0.739375 45.9035 0.197708C42.4342 0.0379167 41.3265 0 32.5 0V0ZM32.5 15.8112C23.2835 15.8112 15.8112 23.2835 15.8112 32.5C15.8112 41.7165 23.2835 49.1915 32.5 49.1915C41.7165 49.1915 49.1888 41.7192 49.1888 32.5C49.1888 23.2835 41.7165 15.8112 32.5 15.8112ZM32.5 43.3333C26.5173 43.3333 21.6667 38.4854 21.6667 32.5C21.6667 26.5173 26.5173 21.6667 32.5 21.6667C38.4827 21.6667 43.3333 26.5173 43.3333 32.5C43.3333 38.4854 38.4827 43.3333 32.5 43.3333ZM49.8496 11.2531C47.6937 11.2531 45.9469 13 45.9469 15.1531C45.9469 17.3062 47.6937 19.0531 49.8496 19.0531C52.0027 19.0531 53.7469 17.3062 53.7469 15.1531C53.7469 13 52.0027 11.2531 49.8496 11.2531Z" fill="black"/>
</g>
<defs>
<clipPath id="clip0">
<rect width="65" height="65" fill="white"/>
</clipPath>
</defs>
</svg>
