<svg width="65" height="65" viewBox="0 0 65 65" fill="none" xmlns="http://www.w3.org/2000/svg">
<path d="M51.4583 0H13.5417C6.06396 0 0 6.06396 0 13.5417V51.4583C0 58.936 6.06396 65 13.5417 65H51.4583C58.9387 65 65 58.936 65 51.4583V13.5417C65 6.06396 58.9387 0 51.4583 0ZM51.0819 25.0169C51.6479 37.5213 42.3231 51.4638 25.8131 51.4638C20.7919 51.4638 16.12 49.9931 12.1848 47.469C16.9027 48.0242 21.6098 46.716 25.3473 43.7883C21.4554 43.7152 18.1729 41.145 17.0435 37.6133C18.4383 37.8787 19.8087 37.8002 21.0573 37.4617C16.7808 36.6031 13.8315 32.7519 13.9263 28.6325C15.1233 29.2987 16.4965 29.6996 17.9508 29.7456C13.994 27.0996 12.8727 21.8725 15.1992 17.875C19.584 23.2537 26.1354 26.7935 33.5237 27.1646C32.2265 21.6044 36.4487 16.25 42.1877 16.25C44.7417 16.25 47.0546 17.3279 48.6742 19.0585C50.7 18.6604 52.604 17.921 54.3237 16.9027C53.6575 18.98 52.2492 20.7215 50.4156 21.821C52.214 21.6044 53.9283 21.1277 55.5208 20.4208C54.3319 22.1975 52.8233 23.7629 51.0819 25.0169Z" fill="black"/>
</svg>
